<svg width="117" height="100" viewBox="0 0 117 100" fill="none" xmlns="http://www.w3.org/2000/svg">
<path d="M3.64 8.17549e-06C-6.86013 -1.02193e-05 16.6399 8.17543e-06 16.64 8.17549e-06H106.64C112.163 8.17549e-06 116.64 4.47716 116.64 10V89.5C116.64 95.0229 112.163 99.5 106.64 99.5H16.64H3.64C16.64 99.5 16.64 79 16.64 79V15.7756C16.64 15.2593 16.6026 14.7507 16.4956 14.2456C15.8511 11.2036 12.8521 2.43139e-05 3.64 8.17549e-06Z" fill="#BEBBBB"/>
<path fill-rule="evenodd" clip-rule="evenodd" d="M67.2276 22C55.6683 22 45.548 28.9217 38.5939 35.3263C35.061 38.5801 32.2116 41.8242 30.2456 44.2525C29.2607 45.4688 28.4925 46.4867 27.9662 47.2071C27.7029 47.5675 27.4998 47.8538 27.36 48.0538C27.2901 48.1538 27.236 48.2321 27.198 48.2875L27.1533 48.3529L27.1402 48.3725L26 50.18L27.1359 51.8713L27.1402 51.8775L27.1533 51.8971L27.198 51.9625C27.236 52.0179 27.2901 52.0963 27.36 52.1963C27.4998 52.3963 27.7029 52.6825 27.9662 53.0429C28.4925 53.7633 29.2607 54.7813 30.2456 55.9975C32.2116 58.4258 35.061 61.67 38.5939 64.9238C45.548 71.3283 55.6683 78.25 67.2276 78.25C78.7868 78.25 88.9068 71.3283 95.861 64.9238C99.3939 61.67 102.243 58.4258 104.209 55.9975C105.194 54.7813 105.962 53.7633 106.489 53.0429C106.752 52.6825 106.955 52.3963 107.095 52.1963C107.165 52.0963 107.219 52.0179 107.257 51.9625L107.301 51.8971L107.315 51.8775L107.321 51.8692L108.492 50.125L107.319 48.3788L107.315 48.3725L107.301 48.3529L107.257 48.2875C107.219 48.2321 107.165 48.1538 107.095 48.0538C106.955 47.8538 106.752 47.5675 106.489 47.2071C105.962 46.4867 105.194 45.4688 104.209 44.2525C102.243 41.8242 99.3939 38.5801 95.861 35.3263C88.9068 28.9217 78.7868 22 67.2276 22ZM35.1031 52.065C34.5057 51.3271 33.9971 50.6713 33.5845 50.125C33.9971 49.5788 34.5057 48.9229 35.1031 48.185C36.9324 45.9258 39.5747 42.92 42.828 39.9237C49.4462 33.8283 58.0759 28.25 67.2276 28.25C76.3789 28.25 85.0089 33.8283 91.6268 39.9237C94.8801 42.92 97.5226 45.9258 99.3518 48.185C99.9493 48.9229 100.458 49.5788 100.871 50.125C100.458 50.6713 99.9493 51.3271 99.3518 52.065C97.5226 54.3242 94.8801 57.33 91.6268 60.3263C85.0089 66.4217 76.3789 72 67.2276 72C58.0759 72 49.4462 66.4217 42.828 60.3263C39.5747 57.33 36.9324 54.3242 35.1031 52.065ZM76.6022 50.125C76.6022 55.3025 72.4051 59.5 67.2272 59.5C62.0497 59.5 57.8524 55.3025 57.8524 50.125C57.8524 44.9475 62.0497 40.75 67.2272 40.75C72.4051 40.75 76.6022 44.9475 76.6022 50.125ZM82.8522 50.125C82.8522 58.7546 75.8568 65.75 67.2272 65.75C58.598 65.75 51.6024 58.7546 51.6024 50.125C51.6024 41.4955 58.598 34.5 67.2272 34.5C75.8568 34.5 82.8522 41.4955 82.8522 50.125Z" fill="black"/>
</svg>
