<svg version="1.1" viewBox="0 0 16 16" xmlns="http://www.w3.org/2000/svg" xmlns:xlink="http://www.w3.org/1999/xlink"><g><path d="M8.00879,0c-3.57568,0 -6.77979,2.34619 -7.97314,5.83838c-0.0356445,0.10498 -0.0356445,0.218262 -7.63278e-17,0.323242c1.19336,3.49219 4.39746,5.83838 7.97314,5.83838c3.57568,0 6.77979,-2.34619 7.97314,-5.83838c0.0356445,-0.10498 0.0356445,-0.218262 0,-0.323242c-1.19336,-3.49219 -4.39746,-5.83838 -7.97314,-5.83838Zm0,11c-3.09277,0 -5.87256,-2.00244 -6.96973,-5c1.09717,-2.99756 3.87695,-5 6.96973,-5c3.09277,0 5.87256,2.00244 6.96973,5c-1.09717,2.99756 -3.87695,5 -6.96973,5Z" transform="translate(-0.008789, 2)" id="id_103"></path><path d="M3,0c-1.6543,0 -3,1.3457 -3,3c0,1.6543 1.3457,3 3,3c1.6543,0 3,-1.3457 3,-3c0,-1.6543 -1.3457,-3 -3,-3Zm0,5c-1.10303,0 -2,-0.896973 -2,-2c0,-1.10303 0.896973,-2 2,-2c1.10303,0 2,0.896973 2,2c0,1.10303 -0.896973,2 -2,2Z" transform="translate(5, 5)" id="id_104"></path></g></svg>