<?xml version="1.0" encoding="iso-8859-1"?>
<!-- Uploaded to: SVG Repo, www.svgrepo.com, Generator: SVG Repo Mixer Tools -->
<svg fill="#000000" height="800px" width="800px" version="1.1" id="Layer_1" xmlns="http://www.w3.org/2000/svg" xmlns:xlink="http://www.w3.org/1999/xlink" 
	 viewBox="0 0 472.615 472.615" xml:space="preserve">
<g>
	<g>
		<path d="M236.308,0C168.221,0,103.915,29.376,59.324,79.742V0.357H40.048v116.907h116.907V97.989H69.176
			c41.066-49.558,102.195-78.713,167.131-78.713c119.674,0,217.032,97.358,217.032,217.032S355.982,453.34,236.308,453.34
			S19.276,355.982,19.276,236.308c0-18.081,2.231-36.071,6.635-53.47l-18.692-4.725C2.429,197.055,0,216.636,0,236.308
			c0,130.3,106.008,236.308,236.308,236.308s236.308-106.008,236.308-236.308S366.608,0,236.308,0z"/>
	</g>
</g>
</svg>