<svg width="41" height="40" viewBox="0 0 41 40" fill="none" xmlns="http://www.w3.org/2000/svg">
<path d="M5.5 11.6667V8.33333C5.5 7.44928 5.85119 6.60143 6.47631 5.97631C7.10143 5.35119 7.94928 5 8.83333 5H12.1667M28.8333 5H32.1667C33.0507 5 33.8986 5.35119 34.5237 5.97631C35.1488 6.60143 35.5 7.44928 35.5 8.33333V11.6667M35.5 28.3333V31.6667C35.5 32.5507 35.1488 33.3986 34.5237 34.0237C33.8986 34.6488 33.0507 35 32.1667 35H28.8333M12.1667 35H8.83333C7.94928 35 7.10143 34.6488 6.47631 34.0237C5.85119 33.3986 5.5 32.5507 5.5 31.6667V28.3333M12.1667 13.3333H25.5M12.1667 20H28.8333M12.1667 26.6667H22.1667" stroke="#444CE7" stroke-width="3.33333" stroke-linecap="round" stroke-linejoin="round"/>
</svg>
